<mxfile host="app.diagrams.net" agent="Mozilla/5.0 (Windows NT 10.0; Win64; x64; rv:129.0) Gecko/20100101 Firefox/129.0" version="24.7.6">
  <diagram name="Page-1" id="SW3o6S78kWPDb2ups2xQ">
    <mxGraphModel dx="2796" dy="1071" grid="1" gridSize="10" guides="1" tooltips="1" connect="1" arrows="1" fold="1" page="1" pageScale="1" pageWidth="850" pageHeight="1100" math="0" shadow="0">
      <root>
        <mxCell id="0" />
        <mxCell id="1" parent="0" />
        <mxCell id="rlHh26_CHVInS20frPJe-1" value="&lt;div&gt;backend&lt;/div&gt;&lt;div&gt;&lt;br&gt;&lt;/div&gt;" style="rounded=0;whiteSpace=wrap;html=1;fillColor=#f8cecc;strokeColor=#b85450;" vertex="1" parent="1">
          <mxGeometry x="340" y="90" width="120" height="60" as="geometry" />
        </mxCell>
        <mxCell id="rlHh26_CHVInS20frPJe-8" style="edgeStyle=orthogonalEdgeStyle;rounded=0;orthogonalLoop=1;jettySize=auto;html=1;" edge="1" parent="1" source="rlHh26_CHVInS20frPJe-2" target="rlHh26_CHVInS20frPJe-5">
          <mxGeometry relative="1" as="geometry" />
        </mxCell>
        <mxCell id="rlHh26_CHVInS20frPJe-2" value="&lt;div&gt;datas&lt;/div&gt;" style="rounded=0;whiteSpace=wrap;html=1;fillColor=#f8cecc;strokeColor=#b85450;" vertex="1" parent="1">
          <mxGeometry x="340" y="250" width="120" height="60" as="geometry" />
        </mxCell>
        <mxCell id="rlHh26_CHVInS20frPJe-18" style="edgeStyle=orthogonalEdgeStyle;rounded=0;orthogonalLoop=1;jettySize=auto;html=1;" edge="1" parent="1" source="rlHh26_CHVInS20frPJe-3" target="rlHh26_CHVInS20frPJe-17">
          <mxGeometry relative="1" as="geometry" />
        </mxCell>
        <mxCell id="rlHh26_CHVInS20frPJe-3" value="admin auth" style="rounded=0;whiteSpace=wrap;html=1;fillColor=#f8cecc;strokeColor=#b85450;" vertex="1" parent="1">
          <mxGeometry x="120" y="250" width="120" height="60" as="geometry" />
        </mxCell>
        <mxCell id="rlHh26_CHVInS20frPJe-16" style="edgeStyle=orthogonalEdgeStyle;rounded=0;orthogonalLoop=1;jettySize=auto;html=1;entryX=0.5;entryY=0;entryDx=0;entryDy=0;" edge="1" parent="1" source="rlHh26_CHVInS20frPJe-4" target="rlHh26_CHVInS20frPJe-15">
          <mxGeometry relative="1" as="geometry" />
        </mxCell>
        <mxCell id="rlHh26_CHVInS20frPJe-4" value="user auth" style="rounded=0;whiteSpace=wrap;html=1;fillColor=#f8cecc;strokeColor=#b85450;" vertex="1" parent="1">
          <mxGeometry x="560" y="250" width="120" height="60" as="geometry" />
        </mxCell>
        <mxCell id="rlHh26_CHVInS20frPJe-9" style="edgeStyle=orthogonalEdgeStyle;rounded=0;orthogonalLoop=1;jettySize=auto;html=1;" edge="1" parent="1" source="rlHh26_CHVInS20frPJe-5" target="rlHh26_CHVInS20frPJe-6">
          <mxGeometry relative="1" as="geometry" />
        </mxCell>
        <mxCell id="rlHh26_CHVInS20frPJe-12" style="edgeStyle=orthogonalEdgeStyle;rounded=0;orthogonalLoop=1;jettySize=auto;html=1;" edge="1" parent="1" source="rlHh26_CHVInS20frPJe-5" target="rlHh26_CHVInS20frPJe-10">
          <mxGeometry relative="1" as="geometry" />
        </mxCell>
        <mxCell id="rlHh26_CHVInS20frPJe-14" style="edgeStyle=orthogonalEdgeStyle;rounded=0;orthogonalLoop=1;jettySize=auto;html=1;" edge="1" parent="1" source="rlHh26_CHVInS20frPJe-5" target="rlHh26_CHVInS20frPJe-13">
          <mxGeometry relative="1" as="geometry" />
        </mxCell>
        <mxCell id="rlHh26_CHVInS20frPJe-52" style="edgeStyle=orthogonalEdgeStyle;rounded=0;orthogonalLoop=1;jettySize=auto;html=1;" edge="1" parent="1" source="rlHh26_CHVInS20frPJe-5" target="rlHh26_CHVInS20frPJe-51">
          <mxGeometry relative="1" as="geometry" />
        </mxCell>
        <mxCell id="rlHh26_CHVInS20frPJe-5" value="&lt;div&gt;api&lt;/div&gt;" style="rounded=0;whiteSpace=wrap;html=1;" vertex="1" parent="1">
          <mxGeometry x="340" y="410" width="120" height="60" as="geometry" />
        </mxCell>
        <mxCell id="rlHh26_CHVInS20frPJe-6" value="&lt;div&gt;images api&lt;/div&gt;" style="rounded=0;whiteSpace=wrap;html=1;" vertex="1" parent="1">
          <mxGeometry x="560" y="580" width="120" height="60" as="geometry" />
        </mxCell>
        <mxCell id="rlHh26_CHVInS20frPJe-10" value="text api" style="rounded=0;whiteSpace=wrap;html=1;" vertex="1" parent="1">
          <mxGeometry x="120" y="580" width="120" height="60" as="geometry" />
        </mxCell>
        <mxCell id="rlHh26_CHVInS20frPJe-13" value="charts api" style="rounded=0;whiteSpace=wrap;html=1;" vertex="1" parent="1">
          <mxGeometry x="340" y="580" width="120" height="60" as="geometry" />
        </mxCell>
        <mxCell id="rlHh26_CHVInS20frPJe-48" style="edgeStyle=orthogonalEdgeStyle;rounded=0;orthogonalLoop=1;jettySize=auto;html=1;entryX=0.5;entryY=0;entryDx=0;entryDy=0;" edge="1" parent="1" source="rlHh26_CHVInS20frPJe-15" target="rlHh26_CHVInS20frPJe-41">
          <mxGeometry relative="1" as="geometry" />
        </mxCell>
        <mxCell id="rlHh26_CHVInS20frPJe-15" value="&lt;div&gt;user info&lt;/div&gt;" style="rounded=0;whiteSpace=wrap;html=1;fillColor=#f8cecc;strokeColor=#b85450;" vertex="1" parent="1">
          <mxGeometry x="1100" y="560" width="120" height="60" as="geometry" />
        </mxCell>
        <mxCell id="rlHh26_CHVInS20frPJe-33" style="edgeStyle=orthogonalEdgeStyle;rounded=0;orthogonalLoop=1;jettySize=auto;html=1;" edge="1" parent="1" source="rlHh26_CHVInS20frPJe-17">
          <mxGeometry relative="1" as="geometry">
            <mxPoint x="-390" y="660" as="targetPoint" />
          </mxGeometry>
        </mxCell>
        <mxCell id="rlHh26_CHVInS20frPJe-17" value="admin auth" style="rounded=0;whiteSpace=wrap;html=1;fillColor=#f8cecc;strokeColor=#b85450;" vertex="1" parent="1">
          <mxGeometry x="-450" y="570" width="120" height="60" as="geometry" />
        </mxCell>
        <mxCell id="rlHh26_CHVInS20frPJe-34" value="accses" style="swimlane;fontStyle=0;childLayout=stackLayout;horizontal=1;startSize=30;horizontalStack=0;resizeParent=1;resizeParentMax=0;resizeLast=0;collapsible=1;marginBottom=0;whiteSpace=wrap;html=1;" vertex="1" parent="1">
          <mxGeometry x="-460" y="660" width="140" height="210" as="geometry" />
        </mxCell>
        <mxCell id="rlHh26_CHVInS20frPJe-35" value="change user login" style="text;strokeColor=none;fillColor=none;align=left;verticalAlign=middle;spacingLeft=4;spacingRight=4;overflow=hidden;points=[[0,0.5],[1,0.5]];portConstraint=eastwest;rotatable=0;whiteSpace=wrap;html=1;" vertex="1" parent="rlHh26_CHVInS20frPJe-34">
          <mxGeometry y="30" width="140" height="30" as="geometry" />
        </mxCell>
        <mxCell id="rlHh26_CHVInS20frPJe-36" value="check userstatus" style="text;strokeColor=none;fillColor=none;align=left;verticalAlign=middle;spacingLeft=4;spacingRight=4;overflow=hidden;points=[[0,0.5],[1,0.5]];portConstraint=eastwest;rotatable=0;whiteSpace=wrap;html=1;" vertex="1" parent="rlHh26_CHVInS20frPJe-34">
          <mxGeometry y="60" width="140" height="30" as="geometry" />
        </mxCell>
        <mxCell id="rlHh26_CHVInS20frPJe-37" value="hidden" style="text;strokeColor=none;fillColor=none;align=left;verticalAlign=middle;spacingLeft=4;spacingRight=4;overflow=hidden;points=[[0,0.5],[1,0.5]];portConstraint=eastwest;rotatable=0;whiteSpace=wrap;html=1;" vertex="1" parent="rlHh26_CHVInS20frPJe-34">
          <mxGeometry y="90" width="140" height="30" as="geometry" />
        </mxCell>
        <mxCell id="rlHh26_CHVInS20frPJe-38" value="update user level" style="text;strokeColor=none;fillColor=none;align=left;verticalAlign=middle;spacingLeft=4;spacingRight=4;overflow=hidden;points=[[0,0.5],[1,0.5]];portConstraint=eastwest;rotatable=0;whiteSpace=wrap;html=1;" vertex="1" parent="rlHh26_CHVInS20frPJe-34">
          <mxGeometry y="120" width="140" height="30" as="geometry" />
        </mxCell>
        <mxCell id="rlHh26_CHVInS20frPJe-39" value="op" style="text;strokeColor=none;fillColor=none;align=left;verticalAlign=middle;spacingLeft=4;spacingRight=4;overflow=hidden;points=[[0,0.5],[1,0.5]];portConstraint=eastwest;rotatable=0;whiteSpace=wrap;html=1;" vertex="1" parent="rlHh26_CHVInS20frPJe-34">
          <mxGeometry y="150" width="140" height="30" as="geometry" />
        </mxCell>
        <mxCell id="rlHh26_CHVInS20frPJe-40" value="&lt;div&gt;check documents&lt;/div&gt;" style="text;strokeColor=none;fillColor=none;align=left;verticalAlign=middle;spacingLeft=4;spacingRight=4;overflow=hidden;points=[[0,0.5],[1,0.5]];portConstraint=eastwest;rotatable=0;whiteSpace=wrap;html=1;" vertex="1" parent="rlHh26_CHVInS20frPJe-34">
          <mxGeometry y="180" width="140" height="30" as="geometry" />
        </mxCell>
        <mxCell id="rlHh26_CHVInS20frPJe-41" value="accses" style="swimlane;fontStyle=0;childLayout=stackLayout;horizontal=1;startSize=30;horizontalStack=0;resizeParent=1;resizeParentMax=0;resizeLast=0;collapsible=1;marginBottom=0;whiteSpace=wrap;html=1;" vertex="1" parent="1">
          <mxGeometry x="1090" y="650" width="140" height="210" as="geometry" />
        </mxCell>
        <mxCell id="rlHh26_CHVInS20frPJe-42" value="change user login" style="text;strokeColor=none;fillColor=none;align=left;verticalAlign=middle;spacingLeft=4;spacingRight=4;overflow=hidden;points=[[0,0.5],[1,0.5]];portConstraint=eastwest;rotatable=0;whiteSpace=wrap;html=1;" vertex="1" parent="rlHh26_CHVInS20frPJe-41">
          <mxGeometry y="30" width="140" height="30" as="geometry" />
        </mxCell>
        <mxCell id="rlHh26_CHVInS20frPJe-43" value="check userstatus" style="text;strokeColor=none;fillColor=none;align=left;verticalAlign=middle;spacingLeft=4;spacingRight=4;overflow=hidden;points=[[0,0.5],[1,0.5]];portConstraint=eastwest;rotatable=0;whiteSpace=wrap;html=1;" vertex="1" parent="rlHh26_CHVInS20frPJe-41">
          <mxGeometry y="60" width="140" height="30" as="geometry" />
        </mxCell>
        <mxCell id="rlHh26_CHVInS20frPJe-44" value="hidden" style="text;strokeColor=none;fillColor=none;align=left;verticalAlign=middle;spacingLeft=4;spacingRight=4;overflow=hidden;points=[[0,0.5],[1,0.5]];portConstraint=eastwest;rotatable=0;whiteSpace=wrap;html=1;" vertex="1" parent="rlHh26_CHVInS20frPJe-41">
          <mxGeometry y="90" width="140" height="30" as="geometry" />
        </mxCell>
        <mxCell id="rlHh26_CHVInS20frPJe-45" value="update user level" style="text;strokeColor=none;fillColor=none;align=left;verticalAlign=middle;spacingLeft=4;spacingRight=4;overflow=hidden;points=[[0,0.5],[1,0.5]];portConstraint=eastwest;rotatable=0;whiteSpace=wrap;html=1;" vertex="1" parent="rlHh26_CHVInS20frPJe-41">
          <mxGeometry y="120" width="140" height="30" as="geometry" />
        </mxCell>
        <mxCell id="rlHh26_CHVInS20frPJe-46" value="op" style="text;strokeColor=none;fillColor=none;align=left;verticalAlign=middle;spacingLeft=4;spacingRight=4;overflow=hidden;points=[[0,0.5],[1,0.5]];portConstraint=eastwest;rotatable=0;whiteSpace=wrap;html=1;" vertex="1" parent="rlHh26_CHVInS20frPJe-41">
          <mxGeometry y="150" width="140" height="30" as="geometry" />
        </mxCell>
        <mxCell id="rlHh26_CHVInS20frPJe-47" value="&lt;div&gt;check documents&lt;/div&gt;" style="text;strokeColor=none;fillColor=none;align=left;verticalAlign=middle;spacingLeft=4;spacingRight=4;overflow=hidden;points=[[0,0.5],[1,0.5]];portConstraint=eastwest;rotatable=0;whiteSpace=wrap;html=1;" vertex="1" parent="rlHh26_CHVInS20frPJe-41">
          <mxGeometry y="180" width="140" height="30" as="geometry" />
        </mxCell>
        <mxCell id="rlHh26_CHVInS20frPJe-50" style="edgeStyle=orthogonalEdgeStyle;rounded=0;orthogonalLoop=1;jettySize=auto;html=1;entryX=0.5;entryY=-0.167;entryDx=0;entryDy=0;entryPerimeter=0;" edge="1" parent="1" source="rlHh26_CHVInS20frPJe-4">
          <mxGeometry relative="1" as="geometry">
            <mxPoint x="1160" y="559.98" as="targetPoint" />
          </mxGeometry>
        </mxCell>
        <mxCell id="rlHh26_CHVInS20frPJe-59" style="edgeStyle=orthogonalEdgeStyle;rounded=0;orthogonalLoop=1;jettySize=auto;html=1;" edge="1" parent="1" source="rlHh26_CHVInS20frPJe-51" target="rlHh26_CHVInS20frPJe-58">
          <mxGeometry relative="1" as="geometry" />
        </mxCell>
        <mxCell id="rlHh26_CHVInS20frPJe-51" value="requests api" style="rounded=0;whiteSpace=wrap;html=1;" vertex="1" parent="1">
          <mxGeometry x="-90" y="580" width="120" height="60" as="geometry" />
        </mxCell>
        <mxCell id="rlHh26_CHVInS20frPJe-53" value="documets api" style="rounded=0;whiteSpace=wrap;html=1;" vertex="1" parent="1">
          <mxGeometry x="30" y="735" width="120" height="60" as="geometry" />
        </mxCell>
        <mxCell id="rlHh26_CHVInS20frPJe-54" style="edgeStyle=orthogonalEdgeStyle;rounded=0;orthogonalLoop=1;jettySize=auto;html=1;entryX=0.442;entryY=-0.05;entryDx=0;entryDy=0;entryPerimeter=0;" edge="1" parent="1" source="rlHh26_CHVInS20frPJe-51" target="rlHh26_CHVInS20frPJe-53">
          <mxGeometry relative="1" as="geometry" />
        </mxCell>
        <mxCell id="rlHh26_CHVInS20frPJe-58" value="forget pass api" style="rounded=0;whiteSpace=wrap;html=1;" vertex="1" parent="1">
          <mxGeometry x="-200" y="735" width="120" height="60" as="geometry" />
        </mxCell>
      </root>
    </mxGraphModel>
  </diagram>
</mxfile>
